0
SECTION
2
HEADER
9
$INSUNITS
70
4
9
$ACADVER
1
AC1014
9
$HANDSEED
5
FFFF
0
ENDSEC
0
SECTION
2
TABLES
0
TABLE
2
VPORT
5
8
100
AcDbSymbolTable
0
ENDTAB
0
TABLE
2
LTYPE
5
5
100
AcDbSymbolTable
0
LTYPE
5
14
100
AcDbSymbolTableRecord
100
AcDbLinetypeTableRecord
2
BYBLOCK
70
0
0
LTYPE
5
15
100
AcDbSymbolTableRecord
100
AcDbLinetypeTableRecord
2
BYLAYER
70
0
0
ENDTAB
0
TABLE
2
LAYER
5
2
100
AcDbSymbolTable
70
2
0
LAYER
5
50
100
AcDbSymbolTableRecord
100
AcDbLayerTableRecord
2
0
70
0
6
CONTINUOUS
0
ENDTAB
0
TABLE
2
STYLE
5
3
100
AcDbSymbolTable
70
1
0
STYLE
5
11
100
AcDbSymbolTableRecord
100
AcDbTextStyleTableRecord
2
STANDARD
70
0
0
ENDTAB
0
TABLE
2
VIEW
5
6
100
AcDbSymbolTable
70
0
0
ENDTAB
0
TABLE
2
UCS
5
7
100
AcDbSymbolTable
70
0
0
ENDTAB
0
TABLE
2
APPID
5
9
100
AcDbSymbolTable
70
2
0
APPID
5
12
100
AcDbSymbolTableRecord
100
AcDbRegAppTableRecord
2
ACAD
70
0
0
ENDTAB
0
TABLE
2
DIMSTYLE
5
A
100
AcDbSymbolTable
70
1
0
ENDTAB
0
TABLE
2
BLOCK_RECORD
5
1
100
AcDbSymbolTable
70
1
0
BLOCK_RECORD
5
1F
100
AcDbSymbolTableRecord
100
AcDbBlockTableRecord
2
*MODEL_SPACE
0
BLOCK_RECORD
5
1B
100
AcDbSymbolTableRecord
100
AcDbBlockTableRecord
2
*PAPER_SPACE
0
ENDTAB
0
ENDSEC
0
SECTION
2
BLOCKS
0
BLOCK
5
20
100
AcDbEntity
100
AcDbBlockBegin
2
*MODEL_SPACE
0
ENDBLK
5
21
100
AcDbEntity
100
AcDbBlockEnd
0
BLOCK
5
1C
100
AcDbEntity
100
AcDbBlockBegin
2
*PAPER_SPACE
0
ENDBLK
5
1D
100
AcDbEntity
100
AcDbBlockEnd
0
ENDSEC
0
SECTION
2
ENTITIES
0
LWPOLYLINE
5
100
100
AcDbEntity
8
0
100
AcDbPolyline
90
6
70
1
43
0.0
10
-9.297787776164423
20
-0.9723430676649869
10
-4.2977877761644212
20
-0.97234306766500911
10
-1.7977877761644012
20
3.3577839512571783
10
-4.2977877761643857
20
7.6879109701793835
10
-9.2977877761643875
20
7.6879109701794013
10
-11.797787776164405
20
3.3577839512572139
0
LWPOLYLINE
5
101
100
AcDbEntity
8
0
100
AcDbPolyline
90
6
70
1
43
0.0
10
21.202212223835595
20
-17.301962010898421
10
16.202212223835595
20
-17.301962010898421
10
13.702212223835595
20
-21.632089029820616
10
16.202212223835591
20
-25.962216048742803
10
21.202212223835591
20
-25.96221604874281
10
23.702212223835595
20
-21.632089029820616
0
LWPOLYLINE
5
102
100
AcDbEntity
8
0
100
AcDbPolyline
90
4
70
1
43
0.0
10
14.622158539322317
20
4.0377839512571949
10
12.702212223835616
20
7.363228517484858
10
7.7022122238356125
20
7.3632285174848757
10
5.782265908348867
20
4.0377839512571949
0
LWPOLYLINE
5
103
100
AcDbEntity
8
0
100
AcDbPolyline
90
6
70
1
43
0.0
10
6.702212223835593
20
-31.632089029820616
10
4.202212223835593
20
-27.301962010898425
10
-0.79778777616440699
20
-27.301962010898425
10
-3.297787776164407
20
-31.632089029820616
10
-0.79778777616440921
20
-35.96221604874281
10
4.2022122238355886
20
-35.96221604874281
0
LWPOLYLINE
5
104
100
AcDbEntity
8
0
100
AcDbPolyline
90
6
70
1
43
0.0
10
12.702212223835616
20
-12.312089029820621
10
7.7022122238356143
20
-12.312089029820603
10
5.2022122238355966
20
-16.642216048742789
10
7.7022122238355797
20
-20.97234306766499
10
12.702212223835581
20
-20.972343067665015
10
15.2022122238356
20
-16.642216048742824
0
LWPOLYLINE
5
105
100
AcDbEntity
8
0
100
AcDbPolyline
90
6
70
1
43
0.0
10
-9.2977877761643875
20
-22.312089029820605
10
-11.797787776164405
20
-26.642216048742789
10
-9.297787776164423
20
-30.972343067664994
10
-4.2977877761644212
20
-30.972343067665015
10
-1.7977877761644012
20
-26.642216048742824
10
-4.2977877761643857
20
-22.312089029820619
0
LWPOLYLINE
5
106
100
AcDbEntity
8
0
100
AcDbPolyline
90
6
70
1
43
0.0
10
-3.297787776164407
20
-21.632089029820616
10
-0.79778777616440921
20
-25.962216048742803
10
4.2022122238355886
20
-25.96221604874281
10
6.702212223835593
20
-21.632089029820616
10
4.202212223835593
20
-17.301962010898421
10
-0.79778777616440699
20
-17.301962010898421
0
LWPOLYLINE
5
107
100
AcDbEntity
8
0
100
AcDbPolyline
90
6
70
1
43
0.0
10
12.702212223835581
20
-30.972343067665015
10
15.2022122238356
20
-26.642216048742824
10
12.702212223835616
20
-22.312089029820619
10
7.7022122238356143
20
-22.312089029820605
10
5.2022122238355966
20
-26.642216048742789
10
7.7022122238355797
20
-30.972343067664994
0
LWPOLYLINE
5
108
100
AcDbEntity
8
0
100
AcDbPolyline
90
6
70
1
43
0.0
10
-17.797787776164409
20
-27.301962010898425
10
-20.297787776164409
20
-31.632089029820616
10
-17.797787776164412
20
-35.96221604874281
10
-12.797787776164412
20
-35.96221604874281
10
-10.297787776164409
20
-31.632089029820616
10
-12.797787776164409
20
-27.301962010898425
0
LWPOLYLINE
5
109
100
AcDbEntity
8
0
100
AcDbPolyline
90
6
70
1
43
0.0
10
-0.79778777616440921
20
-15.962216048742803
10
4.2022122238355886
20
-15.962216048742807
10
6.702212223835593
20
-11.632089029820612
10
4.202212223835593
20
-7.3019620108984196
10
-0.79778777616440699
20
-7.3019620108984187
10
-3.297787776164407
20
-11.632089029820612
0
LWPOLYLINE
5
110
100
AcDbEntity
8
0
100
AcDbPolyline
90
6
70
1
43
0.0
10
-3.297787776164407
20
8.367910970179393
10
-0.79778777616440921
20
4.0377839512572011
10
4.2022122238355886
20
4.0377839512571967
10
6.702212223835593
20
8.367910970179393
10
4.202212223835593
20
12.698037989101586
10
-0.79778777616440699
20
12.698037989101586
0
LWPOLYLINE
5
111
100
AcDbEntity
8
0
100
AcDbPolyline
90
6
70
1
43
0.0
10
16.202212223835595
20
-7.3019620108984187
10
13.702212223835595
20
-11.632089029820612
10
16.202212223835591
20
-15.962216048742803
10
21.202212223835591
20
-15.962216048742807
10
23.702212223835595
20
-11.632089029820612
10
21.202212223835595
20
-7.3019620108984196
0
LWPOLYLINE
5
112
100
AcDbEntity
8
0
100
AcDbPolyline
90
6
70
1
43
0.0
10
-9.2977877761643875
20
-2.3120890298206009
10
-11.797787776164405
20
-6.6422160487427888
10
-9.297787776164423
20
-10.972343067664989
10
-4.2977877761644212
20
-10.972343067665012
10
-1.7977877761644012
20
-6.6422160487428243
10
-4.2977877761643857
20
-2.3120890298206187
0
LWPOLYLINE
5
113
100
AcDbEntity
8
0
100
AcDbPolyline
90
6
70
1
43
0.0
10
-9.297787776164423
20
-20.97234306766499
10
-4.2977877761644212
20
-20.972343067665015
10
-1.7977877761644012
20
-16.642216048742824
10
-4.2977877761643857
20
-12.312089029820621
10
-9.2977877761643875
20
-12.312089029820603
10
-11.797787776164405
20
-16.642216048742789
0
LWPOLYLINE
5
114
100
AcDbEntity
8
0
100
AcDbPolyline
90
6
70
1
43
0.0
10
-12.797787776164409
20
-17.301962010898421
10
-17.797787776164409
20
-17.301962010898421
10
-20.297787776164409
20
-21.632089029820616
10
-17.797787776164412
20
-25.962216048742803
10
-12.797787776164412
20
-25.96221604874281
10
-10.297787776164409
20
-21.632089029820616
0
LWPOLYLINE
5
115
100
AcDbEntity
8
0
100
AcDbPolyline
90
6
70
1
43
0.0
10
-17.797787776164412
20
-5.9622160487428015
10
-12.797787776164412
20
-5.9622160487428051
10
-10.297787776164409
20
-1.6320890298206092
10
-12.797787776164409
20
2.6980379891015827
10
-17.797787776164409
20
2.698037989101584
10
-20.297787776164409
20
-1.6320890298206092
0
LWPOLYLINE
5
116
100
AcDbEntity
8
0
100
AcDbPolyline
90
6
70
1
43
0.0
10
21.202212223835591
20
-35.96221604874281
10
23.702212223835595
20
-31.632089029820616
10
21.202212223835595
20
-27.301962010898425
10
16.202212223835595
20
-27.301962010898425
10
13.702212223835595
20
-31.632089029820616
10
16.202212223835591
20
-35.96221604874281
0
LWPOLYLINE
5
117
100
AcDbEntity
8
0
100
AcDbPolyline
90
12
70
1
43
0.0
10
-9.944074109507044
20
-47.109887453357743
10
-9.33717120712795
20
-48.160486848911574
10
3.9898805002359561
20
-48.160486848911404
10
4.5967834026150172
20
-47.109887453357544
10
8.8272126578391656
20
-47.109612166836079
10
9.615636651042756
20
-46.322011032290753
10
9.6156366510426707
20
-43.044421239770116
10
9.3315697986232067
20
-42.760483506769091
10
-14.678860505515347
20
-42.760483506769411
10
-14.962927357934802
20
-43.044421239770436
10
-14.962927357934806
20
-46.322011032291073
10
-14.174503364731144
20
-47.109612166836385
0
CIRCLE
5
118
100
AcDbEntity
8
0
100
AcDbCircle
10
-27.173645353446144
20
-45.090388554977274
30
0
40
1.4750000000000041
210
0
220
0
230
1
0
LWPOLYLINE
5
119
100
AcDbEntity
8
0
100
AcDbPolyline
90
10
70
1
43
0.0
10
-21.910718734412416
20
9.9096114450216444
10
-12.673645353446904
20
9.9096114450216444
10
-12.673645353446908
20
15.909611445021268
10
-24.03364535344755
20
15.909611445021268
10
-24.03364535344755
20
11.958037989101587
42
-0.41421356237309437
10
-26.033645353447554
20
9.9580379891015891
10
-30.173645353446616
20
9.9580379891015891
10
-30.17364535344662
20
-41.841962010898406
10
-23.910718734412409
20
-41.841962010898406
10
-23.910718734412416
20
7.9096114450216337
42
-0.41421356237309764
0
CIRCLE
5
120
100
AcDbEntity
8
0
100
AcDbCircle
10
-27.173645353447093
20
12.909611445022753
30
0
40
1.4749999999999952
210
0
220
0
230
1
0
CIRCLE
5
121
100
AcDbEntity
8
0
100
AcDbCircle
10
21.826354646554066
20
-45.090388554975284
30
0
40
1.4750000000000041
210
0
220
0
230
1
0
CIRCLE
5
122
100
AcDbEntity
8
0
100
AcDbCircle
10
21.826354646554012
20
12.909611445024732
30
0
40
1.4750000000000041
210
0
220
0
230
1
0
LWPOLYLINE
5
123
100
AcDbEntity
8
0
100
AcDbPolyline
90
12
70
1
43
0.0
10
1.8898084285346095
20
-3.5385625549772559
10
2.1916903272211163
20
-3.8403885549772543
10
25.704574998015254
20
-3.8403885549772543
10
26.002829447416602
20
-3.5385625549772559
10
26.002829447416595
20
-0.025852554977259246
10
25.507633361035911
20
0.47448344502274864
10
20.967051545257533
20
0.47448344502274864
10
20.333866524474573
20
1.5723214450227463
10
7.8365005121199882
20
1.5723214450227463
10
7.2312102077002223
20
0.52394941030435405
10
2.6751886050399265
20
0.52394941030435405
10
1.8898084285346095
20
-0.26143555497725401
0
LWPOLYLINE
5
124
100
AcDbEntity
8
0
100
AcDbPolyline
90
22
70
1
43
0.0
10
23.396354646554069
20
20.754267045199597
10
23.396354646554087
20
39.887361745143778
42
-0.52273530897712495
10
27.752829447416349
20
31.049529535544149
42
0.12701665379257443
10
26.502829447416264
20
26.208300352784267
10
26.502829447416261
20
-37.344421862562214
42
0.12701665379258184
10
27.752829447416261
20
-42.185651045321478
42
-0.57128676736637618
10
22.502829447416062
20
-51.090388554977025
10
-27.873645353447483
20
-51.090388554975242
42
-0.57128676736635231
10
-33.123645353447266
20
-42.185651045319688
42
0.12701665379258334
10
-31.873645353447259
20
-37.344421862560409
10
-31.873645353447277
20
25.331429039079403
42
0.12424633315025628
10
-33.07135362917802
20
30.076917465033141
42
-0.49509356212258621
10
-28.678645353445859
20
39.783342237152809
10
-28.678645353445948
20
17.104267045199499
10
-12.168645353446038
20
17.104267045199599
10
-12.168645353446035
20
39.954267045199586
10
-8.7436453534459808
20
39.954267045199586
10
-8.7436453534459773
20
20.954267045199579
10
5.3963546465539736
20
20.954267045199568
10
5.3963546465540047
20
39.954267045199586
10
9.2563546465539215
20
39.954267045199586
10
9.2563546465539197
20
20.75426704519959
0
ENDSEC
0
SECTION
2
OBJECTS
0
DICTIONARY
5
C
100
AcDbDictionary
3
ACAD_GROUP
350
D
3
ACAD_MLINESTYLE
350
17
0
DICTIONARY
5
D
100
AcDbDictionary
0
DICTIONARY
5
1A
330
C
100
AcDbDictionary
0
DICTIONARY
5
17
100
AcDbDictionary
0
ENDSEC
0
EOF
